<mxfile host="app.diagrams.net" modified="2022-03-17T15:03:57.330Z" agent="5.0 (Windows NT 10.0; Win64; x64) AppleWebKit/537.36 (KHTML, like Gecko) Chrome/99.0.4844.51 Safari/537.36 Edg/99.0.1150.39" etag="N-wVGVjGeWMzbgeYGTcZ" version="16.4.3" type="gitlab">
  <diagram id="aGEuIvZmdsL6z3s3fGaJ" name="Page-1">
    <mxGraphModel dx="1217" dy="513" grid="1" gridSize="10" guides="1" tooltips="1" connect="1" arrows="1" fold="1" page="1" pageScale="1" pageWidth="850" pageHeight="1100" math="0" shadow="0">
      <root>
        <mxCell id="0" />
        <mxCell id="1" parent="0" />
        <mxCell id="TVotVtl5lSkwfosgHtOw-2" value="" style="whiteSpace=wrap;html=1;aspect=fixed;" vertex="1" parent="1">
          <mxGeometry x="69" y="100" width="480" height="480" as="geometry" />
        </mxCell>
        <mxCell id="TVotVtl5lSkwfosgHtOw-3" value="" style="rounded=0;whiteSpace=wrap;html=1;" vertex="1" parent="1">
          <mxGeometry x="149" y="170" width="310" height="100" as="geometry" />
        </mxCell>
        <mxCell id="TVotVtl5lSkwfosgHtOw-4" value="" style="rounded=0;whiteSpace=wrap;html=1;" vertex="1" parent="1">
          <mxGeometry x="149" y="320" width="310" height="100" as="geometry" />
        </mxCell>
        <mxCell id="TVotVtl5lSkwfosgHtOw-5" value="" style="rounded=0;whiteSpace=wrap;html=1;" vertex="1" parent="1">
          <mxGeometry x="149" y="450" width="310" height="100" as="geometry" />
        </mxCell>
        <mxCell id="TVotVtl5lSkwfosgHtOw-25" style="edgeStyle=orthogonalEdgeStyle;rounded=0;orthogonalLoop=1;jettySize=auto;html=1;exitX=1;exitY=0.75;exitDx=0;exitDy=0;entryX=0;entryY=0.25;entryDx=0;entryDy=0;" edge="1" parent="1" source="TVotVtl5lSkwfosgHtOw-6" target="TVotVtl5lSkwfosgHtOw-35">
          <mxGeometry relative="1" as="geometry">
            <mxPoint x="279" y="297.5" as="targetPoint" />
          </mxGeometry>
        </mxCell>
        <mxCell id="TVotVtl5lSkwfosgHtOw-6" value="Web app firewall" style="rounded=1;whiteSpace=wrap;html=1;" vertex="1" parent="1">
          <mxGeometry x="179" y="220" width="50" height="30" as="geometry" />
        </mxCell>
        <mxCell id="TVotVtl5lSkwfosgHtOw-24" style="edgeStyle=orthogonalEdgeStyle;rounded=0;orthogonalLoop=1;jettySize=auto;html=1;exitX=0;exitY=0.75;exitDx=0;exitDy=0;entryX=1;entryY=0.25;entryDx=0;entryDy=0;" edge="1" parent="1" source="TVotVtl5lSkwfosgHtOw-7" target="TVotVtl5lSkwfosgHtOw-35">
          <mxGeometry relative="1" as="geometry">
            <mxPoint x="329" y="297.5" as="targetPoint" />
          </mxGeometry>
        </mxCell>
        <mxCell id="TVotVtl5lSkwfosgHtOw-31" style="edgeStyle=orthogonalEdgeStyle;rounded=0;orthogonalLoop=1;jettySize=auto;html=1;exitX=1;exitY=0.5;exitDx=0;exitDy=0;entryX=0;entryY=0.5;entryDx=0;entryDy=0;" edge="1" parent="1" source="TVotVtl5lSkwfosgHtOw-7" target="TVotVtl5lSkwfosgHtOw-28">
          <mxGeometry relative="1" as="geometry" />
        </mxCell>
        <mxCell id="TVotVtl5lSkwfosgHtOw-7" value="Web app firewall" style="rounded=1;whiteSpace=wrap;html=1;" vertex="1" parent="1">
          <mxGeometry x="379" y="220" width="50" height="30" as="geometry" />
        </mxCell>
        <mxCell id="TVotVtl5lSkwfosgHtOw-26" style="edgeStyle=orthogonalEdgeStyle;rounded=0;orthogonalLoop=1;jettySize=auto;html=1;exitX=1;exitY=0.5;exitDx=0;exitDy=0;entryX=0.5;entryY=0;entryDx=0;entryDy=0;" edge="1" parent="1" source="TVotVtl5lSkwfosgHtOw-9" target="TVotVtl5lSkwfosgHtOw-7">
          <mxGeometry relative="1" as="geometry" />
        </mxCell>
        <mxCell id="TVotVtl5lSkwfosgHtOw-27" style="edgeStyle=orthogonalEdgeStyle;rounded=0;orthogonalLoop=1;jettySize=auto;html=1;exitX=0;exitY=0.5;exitDx=0;exitDy=0;" edge="1" parent="1" source="TVotVtl5lSkwfosgHtOw-9" target="TVotVtl5lSkwfosgHtOw-6">
          <mxGeometry relative="1" as="geometry" />
        </mxCell>
        <mxCell id="TVotVtl5lSkwfosgHtOw-9" value="ELB" style="rounded=1;whiteSpace=wrap;html=1;" vertex="1" parent="1">
          <mxGeometry x="284" y="120" width="50" height="30" as="geometry" />
        </mxCell>
        <mxCell id="TVotVtl5lSkwfosgHtOw-10" value="VPC Private subnet" style="rounded=1;whiteSpace=wrap;html=1;" vertex="1" parent="1">
          <mxGeometry x="253" y="530" width="110" height="20" as="geometry" />
        </mxCell>
        <mxCell id="TVotVtl5lSkwfosgHtOw-11" value="VPC Public subnet" style="rounded=1;whiteSpace=wrap;html=1;" vertex="1" parent="1">
          <mxGeometry x="249" y="249" width="110" height="20" as="geometry" />
        </mxCell>
        <mxCell id="TVotVtl5lSkwfosgHtOw-12" value="VPC Private subnet" style="rounded=1;whiteSpace=wrap;html=1;" vertex="1" parent="1">
          <mxGeometry x="255" y="400" width="110" height="20" as="geometry" />
        </mxCell>
        <mxCell id="TVotVtl5lSkwfosgHtOw-13" value="Dynamo DB" style="rounded=1;whiteSpace=wrap;html=1;" vertex="1" parent="1">
          <mxGeometry x="179" y="490" width="50" height="30" as="geometry" />
        </mxCell>
        <mxCell id="TVotVtl5lSkwfosgHtOw-22" style="edgeStyle=orthogonalEdgeStyle;rounded=0;orthogonalLoop=1;jettySize=auto;html=1;exitX=0.5;exitY=0;exitDx=0;exitDy=0;entryX=1;entryY=0.5;entryDx=0;entryDy=0;" edge="1" parent="1" source="TVotVtl5lSkwfosgHtOw-14" target="TVotVtl5lSkwfosgHtOw-35">
          <mxGeometry relative="1" as="geometry">
            <mxPoint x="329" y="305" as="targetPoint" />
          </mxGeometry>
        </mxCell>
        <mxCell id="TVotVtl5lSkwfosgHtOw-14" value="Instance" style="rounded=1;whiteSpace=wrap;html=1;" vertex="1" parent="1">
          <mxGeometry x="389" y="370" width="50" height="30" as="geometry" />
        </mxCell>
        <mxCell id="TVotVtl5lSkwfosgHtOw-16" value="VPC" style="rounded=1;whiteSpace=wrap;html=1;" vertex="1" parent="1">
          <mxGeometry x="79" y="110" width="50" height="20" as="geometry" />
        </mxCell>
        <mxCell id="TVotVtl5lSkwfosgHtOw-18" value="MySQL" style="rounded=1;whiteSpace=wrap;html=1;" vertex="1" parent="1">
          <mxGeometry x="379" y="490" width="50" height="30" as="geometry" />
        </mxCell>
        <mxCell id="TVotVtl5lSkwfosgHtOw-20" style="edgeStyle=orthogonalEdgeStyle;rounded=0;orthogonalLoop=1;jettySize=auto;html=1;exitX=0.5;exitY=0;exitDx=0;exitDy=0;entryX=0;entryY=0.5;entryDx=0;entryDy=0;" edge="1" parent="1" source="TVotVtl5lSkwfosgHtOw-19" target="TVotVtl5lSkwfosgHtOw-35">
          <mxGeometry relative="1" as="geometry">
            <mxPoint x="279" y="305" as="targetPoint" />
          </mxGeometry>
        </mxCell>
        <mxCell id="TVotVtl5lSkwfosgHtOw-19" value="Instance" style="rounded=1;whiteSpace=wrap;html=1;" vertex="1" parent="1">
          <mxGeometry x="169" y="370" width="50" height="30" as="geometry" />
        </mxCell>
        <mxCell id="TVotVtl5lSkwfosgHtOw-30" value="" style="edgeStyle=orthogonalEdgeStyle;rounded=0;orthogonalLoop=1;jettySize=auto;html=1;" edge="1" parent="1" source="TVotVtl5lSkwfosgHtOw-28">
          <mxGeometry relative="1" as="geometry">
            <mxPoint x="689" y="305" as="targetPoint" />
          </mxGeometry>
        </mxCell>
        <mxCell id="TVotVtl5lSkwfosgHtOw-28" value="Internet gateway" style="rounded=1;whiteSpace=wrap;html=1;" vertex="1" parent="1">
          <mxGeometry x="519" y="290" width="100" height="30" as="geometry" />
        </mxCell>
        <mxCell id="TVotVtl5lSkwfosgHtOw-32" value="Internet" style="aspect=fixed;perimeter=ellipsePerimeter;html=1;align=center;shadow=0;dashed=0;spacingTop=3;image;image=img/lib/active_directory/internet_cloud.svg;" vertex="1" parent="1">
          <mxGeometry x="700" y="260" width="79.36" height="50" as="geometry" />
        </mxCell>
        <mxCell id="TVotVtl5lSkwfosgHtOw-33" value="" style="shape=image;verticalLabelPosition=bottom;labelBackgroundColor=default;verticalAlign=top;aspect=fixed;imageAspect=0;image=data:image/png,iVBORw0KGgoAAAANSUhEUgAAAOEAAADhCAMAAAAJbSJIAAAA0lBMVEX1hTb///+dUCX1fyb0exj++PX6zLT1hDP5hzeYTST1gzH1gi70fBz1gCr1fyedTySXQACWPgD95df2jEP2lVX96d2bTB3sgDT838/4q3z+9O76waH828iXQwWZRhH5vJn4soi0XimsWSjGaS371sH+9fD3oWz97eP6x6v3nGL2j0r5uZTadTHr3df3pHH4qXndxrzTtqrNbS6vdVnheTLGn43n19Dodh/SaBa6inTWu6+kXTjFnYurbU68jXj0dADuybbGXxCmSwOzWR2mY0C1gGdpXPjhAAAQQUlEQVR4nO2deXuiOhvGZRNkEawWtSraauvS2tr1nLYzfc8y/f5f6Q0okEACCRLFc8391ywu/MyTZ0sINeG/rtqxL4C7fhOevn4Tnr4ORngxn5/1Zr6Gw975fH59qC/mTXh9Vh9PbtpNyQSSQgV/0Vc3k8XwXOF8BRwJ57PbZRuQWJau1jBSdcMC5NLqZjyb87sMPoRKb9yRARseLUlqWJIpr8Y9PqPJgfBs3JFMS6dgg6VbptQZnJV/OSUTKrN+ATqI0poMSx7KMgmV+k1TMgrShTIk635WJmR5hL2+uTdeCGn2e6VdV0mEyqJmloO3gzRrg4tyLq0UwvO+2aTxmixSm+ZDKX6nBMJhp9Thi2WYnWEFCOtts6jrzJdututHJqyrUtnmiUqVansy7kU4a3Pm2zK2Z0ciPOuY/PkCRrOzh88pTKj0Oc6/pHTzvnC1VZSwLlkH4/NlmIuDEs470kH5fEnt88MRjg9ooLF0c3wgwvnq8AO4lbQqMIzshIujDOBWRYaRlVBZmkfj8yV1WJ0qI2FP55OC0suQGHNVNsKBfJgYnyVVZrNUJsKb41poKOmGE+FF+7BBniyrzVAd0xOeG8fzoUnpBn2iSk04PFCaTSfVpK43aAnr8rGhEpJp81RKwkHVAGs1c1Am4bh6gGAUb8sjvK1GlEjKnJRFWFFAgEgzihSElQWkQ8wnHFQXkMrd5BJWLkygknN7jXmEw2oDAsS8NZwcwvMqm+hWZs4KeTahUqtSqoaXXstebcwm7By73qWR0SlOOGke++qp1OwXJazvNwlV3TAsyzCoNmTspcxucQbheWE3qhpN0zTanfv+ZNJ/WLYNyZQMnpxyRpeRTFjUy+hNs/awOEOq8Iuzer8tN7mV0GrGQJH/675Iz0KVpOWC4L7ni6UkcYK0HtgJi0xCw2wvMjso1/WOzMc9m8TchkR4wd65N8x7ij0i532TS0NLIv20JMIl60+tyzeU2+8u+jzG0ViyETLbKNMy7XzJoa1FslM84TWjjRoS43aCoV66qaoWPnvDE96zmZG0ZF+D7pee0xP8KZawx/TtqkzZ9UJVL91STayjwxK2WaKWbhXcKHFeK9nhqG1awgXLLNRrWDd9PRtMOu2abujt5WTRw1qxsip5Mkq4/BRDqFgM5mO0MfP7fLySJQuk3OCDVFW3mpLcGeBiSadcRNXAXAyG8JbhazGAyqCN2SUMstX2Iv39JSM2Mb23NOE1Q0mRrq+ViUTaiKlKVvoCVuXORTn9I6YJJ/Q/q2ok5+BAzny3lZopSq3UXNxKt8FThBcMkUJOeNHzdq6PkjqJ+Tgvd+uKmfJ7KUKGIUyW1gOZYjz05LLYrNR+ZXoQk4QK/RAaieV02lV+M9FWCX5T/7YSKbhxqPC9DLtPT87EJOGYeggTeSBDcGsmyoC2bpm1/qA+PJvPh/XbG8lkiVfJD0/u1EgS0rdTErl8m8EpWmj/70wdo32W3sQo3AxQ9WzCOvW819GBYOusWtktTv9CVkXT1mSZkyBcUf90aHvrhjFyW/d5iEK9Viwb0FdZhGfUfsZASpUBs8unWBZT7osVWCYaw1BC+lAhw2HtrIDDz10zEoq2pA3UV6OE1F18NFIU6axmtTgjFVvbQwMG8j0zamNDis3bQssbuCw5JbZafCfU1yCES1o/g9SaLHkerHSChVGRjAd18zDhNfWlWrCf6BcsD6zMJaNQ4wJ5K/LbwYT0wRD2M/PCLSU5MYjK+flFuvqhNqxYiJnChDeFjJSlYEaFZMlntyuQlsry6jaxjjRnt1PETCFChfqjkEp2j1XU2JrOl/IuF9UtuYMyFvgJ4UIYIqT3pPBW6+Eefc9oECdI3aWj7UnW9rR/gdDeTIiQ3mNI0E/EUE+mJQc9uJ6a/Ay0wGL/CjjoQ4Rt2ritwpkf9btwCsy9j8mxke1c7FteYEcRE9L7RANKm4sGw50kZZgawEBIg4T9V4Q22cSEC2qXYUFF5nC/Nou+ItyjiVQI7GYKxYuY8IF+GkLhhv53wYs4OibkzXq6zHirP1T6xIT01T3sSvdyNJTX6E8G/7gGhtCvGmnCC+poaPwPmiP0I8+oVO2hzDo0vbyd4nwp+hzaaKib93BpSJ0HMUtOr+acLanvm4vtLCKkbLJJbbSCLpA1UsrE7QLq5fect4prg4iQajD0VPOBH6GEbwIs6KajHpXoESFNzLHSt+JyJCTchTdf0bjvOOaHhDS9btw9YxwJiZsfJjROMWplhIQUXTbs7Q38CJvkDYcLCsSo4xYS5rtS/M5/foRWRr9xmH+nZ1RehISDPFcq4QCV2V6Jd6b0znhQn/Xw57nld6iiHygkzMtNmunNKmeDjsnz5A/dsvzD62T1BrMHILfPGNWeIWGOtaX3Utdxq/VcpOpNc5VyO3nd4qiTERJmN3XVZiLBOMi5LZB0qZa8pXKS7TmicBESZr9cRmOTsjz8Pd2qmVwfz9k+2WQhTOwYmxtHuUlBT6yq5xTfYaulRvPqJuLPeke7I1hGI3J2fzds5O0IM1sYTSQyUcQibpJQY+pkubqwkbEjzGz2SPCnFllJK0/SPfW1hLXJjjAraUOGUOF630S+JMRQs2JcuDy2I+xlmDTcHWXf/122kA0SWalNWJvsCDNaZkjDZHb8u/WQ1eeMfQf0hEidVoG79XQ4vcpo9YWp944ww/HCfoZpby0vwQdGZGykDOvLHeFfxEtHjLQCQ5hY2yMHDGpCuNSm34zCVXCzmNxAk/6iJIRbXtzav2yCzYrsQKgJ4f15qyoYKVDc0M5IN2kJYaOn38nAWZBdKeR5SEkIL4kX2tzCQ8gSL8muEoQfJELY5umXwTkLbsMRY770QUkIrRfT70bhLLgNRwwXCcLNf5BwgxL+QXgdTFgdK6Uh/AMlfPtTw78OXrPfc0W7PMFZCCmCaX+80RHCvrTA7iQ+gvfIknyp9idKuP6bQIgkgfwa3GyCIr5Csivt7zUdIVL/Ft/CVqpg30BMlZOEF/+QCOG9svRr/VwF18DEAlH7B+21KSPSx8GbZ6qReiPdW3KnZoT2SwWvS3ghMhEV9fgzUYXnDXk/ZdcTUMLGC8lMkRsrese3UxlewCAb6UsjQfj8RCJEN/fTLL9yFbpXgujdtafnBOHXvyTCxIkTRz4jEj0skdz60/79ShC+ekTCxI7zxTHPEk6cIUwO0Jr3miDcjEiuJnWr6LCkB+awy5DQRcSMm5G6o02CcN26Iw6inriT/5rHwR35Us0Ourk/YzlJu2utE4RKa0okrDWT+0xmtcMuAdeCh5UkV4Ezjn7Qpq3kfhrh84pMWEuf2ltvc3p8Dl7+6UXJS3jISD+0q8/wZRHhs0ueiNhtdL2+f4IX96PKVN0/OAzzhKtxVteo64bBIiZ89Z6yvge7U3C+eOi0DUnmJ/9MtIcF7ruzA/Nd5Epjws3oMsNMwTQgHYmm8BXhWxeZfT/tMnKl0B7hViPrPWAUy3sU2v6a5DQ2G630HmHBa5DjRSDqE7S5S1lm91O0u4YXvTgm/HYz4kUg84b3M0PpNLRy3Lh26b5Hr44JHz0x+30gf1P3erZUOVJw99gkJHqP0etjwrWTZ6b+ZFwWe2BPeaobuVU4MFJnHb0B2vMv2pnedCtdfuD43NdcUe2n0y5tMX4LRPjuZnvTnQzznsPzUKlUp9wv2ICmIUy4GTWIZXCCsTY4uLEqsweZjk97asTREL2HtCVm5aawVMts9+sHo7wYjpf0z3DVrsQW/h5SkJqSuzVpSEMy5fbNZLyoc9RiMHnoSDLLoTXaSyNOShOEH55I4WsQzODB0xzVtCzWh79ol+Log0B47diNrALjNNRt2M41gdA307y8pvLSpqiRooSbkUgVMCqthgh70gShMrJPfRDBENojgUgofLlibnJacYmi+5VBuHbE0x5EMIQilJOmCYVf7onPxIbo/hKyCD9GJz2I/hAiwTBNKLi2eMIxsdsQbVvIJnz1RNbEpjoC6YwYN9kIhIoDBpE+O62UQEYq2k7euYnCDzCI9okS2mAIfySBUoTXI/tEnY3vZtCUFE8ofIFBPElnA9yM6H2leNKEoBAWqUvhCgkUviJS+hIJA3dK2c+okLSnBsaR4gkVzz5BO/Vt1HbpzvMWHkenZ6eBjY4eMTTY8xk/QYlxWv7U96Oi+4mDwRK++c6m8XLsy2YQiPWi6LxREwrvwNmcVKXoX673jmXBE4JiHwziyUzFYBLaHsszSoQPRzydqRhMQtH5wKOQToJ9dn3E3MWoKiiIhCLaYKMg9NNT8SSqDC3wMvaI9Kgb4mm+G99ORbFbdUStG1ynsyGBkM8r/g78qX1sglzZgR/9JnJknMgsBlOx6g7Vd6PgSskYGYRrP+5XHFG78ieh2FqTMbJO1X4MpmKjwm0b7XILiMtHaQh3qU11EXeAmLKXltBvEFcYcQeYbAEzESquXV3E3Rx0xX2eBwy8zRbx6tg4GG0BbSfDy1AQgkIqRKzWMGohYAtbMjEQCh9BzBAb1cputK4dAIotQr7NQCg8bhFFsUI5qvayu6bMOEFLKPzYZqgVqjS0u+0Aik6qw12IMEasSL24rQcpAakIha8QsQouNfQxlIB0hMKP3VxsHH8yRlNQbGHav4UJY3dzbEuNLJQWkJYQBA07tNQjhg2tG1qonR8mGAmFTYh4xDWNbUdmm8nkBXp2QuHNc0PEy6MMYzyAouvmpGqFCIXrT0+Mh/HQjFo8gKL3yfCEZQZCQfh2IsSrAztV7SUaQNEhN2X2JRReo8kITPWAubhWu4z4bFonWogQmoxiozE9EKNWe2pEgK5H7WMKEQrKz5EYMdqHmI5gAtoRnzj6yXrfDishsFTHhRjvOI8jyuc6bBZajFBYxz41GEeOjMA+IT7gQ+mDxD6EfprqQoyNaZePsWrdqQjxuXSZdimEwvqXY8OMly+lM2pa97IB8dnOrwIDWJjQ380AmaofH4GxlgcJPurpCuYDA5hfzZdLKChfsKmGA1kGJPiQO2T4fL73wrc+FiYEpvoTNlUfUpzuDQnef3cpInii2/pZzED3JQT1xmeSEYzkXbcoJXhf1x89lA9MQOLaIHdCwCg6iK0GlFfTlxorpf/6l+lVgs63T3Evvr0Jg3FMMvpDeTW969L5Hs2H6975dEk8wPe5J18JhIDxV5oxoLQBZjCaACEFq+3UfXmaXokYOtEG829vvlIIQT7+7Xh2GjLAbIhXl9Onu7uXbjfeDAj+/HL3NJ1e+gOHgfP5POdrD/8SqxRCUB0/ggmJhQxBtyS2baP/gJftOvZjSbfGl0QI9PbujMiQDAJ43hdjiZSh8ghBErD59vaFtN2R913C7ItVJqHgQ747jleQ0nY9MHqbkg9uKJnQ1/r12WOmDOieX8szzkgcCIGUt8dvpzWiwwRwo5bz/PjG59QNPoSB1pvX50/HGXme69ppVNt2Xc8bOc7n8+umlLiAF0fCQMp68/j6/lMEJL5GvnZ/FH++vz5u1rzPS+FNGEm5WK/f3ja+3t7Wa8wjxjnpYIRH02/C09dvwtPXf5/w/9mRQ8Hfa0XwAAAAAElFTkSuQmCC;" vertex="1" parent="1">
          <mxGeometry x="552" y="231.5" width="55" height="55" as="geometry" />
        </mxCell>
        <mxCell id="TVotVtl5lSkwfosgHtOw-34" value="" style="shape=image;verticalLabelPosition=bottom;labelBackgroundColor=default;verticalAlign=top;aspect=fixed;imageAspect=0;image=data:image/png,iVBORw0KGgoAAAANSUhEUgAAAOEAAADhCAMAAAAJbSJIAAAA7VBMVEX1hTb///+dUCX1gjD1hDP7y6z1fyf1gCr4pGn1hDH7yKj+8er959n2j0T2k1D1gS37z7P6vpn0fB3/9/H5tpH96uH3om794c2bTB3//Pny6uaZTSSaSRikXDL71LzXvrLkezOZRhH1ij32iz/vgTWWQQDdeDTPby/3pXP2llb82sX5tIn4rXz6v5v0eRT3nGDr3dWqWCi1Xyrm0sfbw7e7iXHIai3HoZG0fGCtcFGkWzH2jT/3oGT4sIX0dQDlw7LacCTCYh+zWyDKdkS+ckazb0mkY0GrdF20gWrCloC4gWPQsqPFnIfMqZq7ZTD140o2AAARw0lEQVR4nO2daVfjuBKGvQibrE5ishiH7AlkIwsQIB3uMvcO0zTd/P+fc2VnsyXZlm1Z7nPPvB/m9GEM5KFKVaXSYkHkJMPQnTIMXr9YSPw36Pl6q3RRnr5d7s66fJuWL0qtel5P/PcnSpibzGe1RbEvqIqqabJTmga/JvSLi9psPqkm+SESItSr+fJOrUAwWQZA8BIAkFVVKpVFuV7NJfNRkiDMt+a1fkWVPcFwyarS25Vb+QQ+DXPCXLZWFFTZ226e9syooFgrM4dkSqjny4V7JQLdiVJWK9+mdabhhyFhPnunqNHpTpSqejmfsPtYzAhbdwUtzMjzk6z2axesEiYTQiOfVRQtvvnOArKiXLFJlgwIjfr0m8KQ7ii1N5swMGR8wnqtz2D0kQS03qKUNqE+uazEiJ2BjHKl2Irpq/EI67OMlhjeXrKya8Xy1TiE1VkvaT6bUajVUyHMldmGTz/Gylv0Uicy4cVY5YNnSytko7pqRMLqXYZVeqcT0BYRXTUSoT7XeAxAt+TKNNL8Kgph/k7hNADdUhctPoTZfiYNPqiMMOVAWK2lY0BbQBmHHo1hCSdj/iPQKRhUEyU05j2+IRQX0KbhyrhQhLmUQoxbyiJU+g9DmN8lMUkKL60YpgUQgnBSSNtDj5KFEJMqesKL38FDDwKVKXURR0toZDO/DyAUfbyhJDSueM0jaKVdUlqRjlCfVtImwqTs6JY7qAj1Gc+ZEq20BRUiDaFxmW4d4yW5SDPZoCDUL3+PNIhLK1JYMZjQmP6eFrQkL4KtGEhoTLnneVkN1PEzabvAiBpIeMU9isq1q0DVjrlLuQzKi0GEJf5pUKEoyc4fS74KsGIAYSuFSka5CCa8OLcZ1HkcwnpCKxIsCYWKv819CavjNGYTYQlB37ez4Ueo36WSJ8ISwszvNyX2I5ymU6uFJhTUnU9A9SEspVSMhicUlHIUwnwhpflSBEIAvKONJ6G+S6tYi0DoNxQ9CcupVaNRCOGEOCxhPb0pbyRCQfHqFHsQ5orp9dWiEYKeR1b0ICyntfgCg0YlEiEs2Mkpg0w4SamxBjStV1xQ9HsJhF5+SiTU0+j9Ak0Rxm/ZCVWXkEQIVOKMn0iY5dy2ALKmVHqzVr5K2+clEQraHS1hvs/RR4GsCoXxrBRuJzSRUCDmfQKhMeOWCmVVKdTmpXrofRZkQmLbhkBY5xVHlcqiPKlG2tRFJiQGGwIhr1SYCbuaG0woKLgRccISr2pGe2NPqOJbGTBCY8EtU6jRt3J5EYIC9jMxwiy/akbeMScU1Dc0aqGEOa6tmSg7gPwJQQ81IkrY4pns5buou2M9CQV15k9ofONakCpRjehNKNwjtQNCWOJarwEtoJsbhVBDwilCuOM4CoFSiLy/2YcQIEtubsIWPz5B7nnsp8hHnD0dpbkrCReh8cavOaNceszJjRpFreNHKI9dhY2LsMptUqEpZa8wWo44xz9LdTmBi3DOKc4A7c5zstSqROvTOCSPPQk5pQqt6L0tPV8AsQmFivPv5yTk00EEFZ+NMDosqWhWSP0JVWeT30nIZalJG6NZXs+fLWrtz1Xn1UCVfb1NHjsGuYMwV0zeSYGGbbjP1zKnyLBvEKmVQPkvGoGeI9Y4CJNfsgdKHztvly1ocuHw70mP0UdwuumZMPlkKPfLKF/9m7WnU903yfLMurTAsVvqTFhNejVN2aHFSu5KOFSJVnDRGbZPlDqBsJ5sMtQqczTHT8bHLZ3WDjWD5ZKzw03PhIn2EEHmDp2ZVmeVs820scG03AAZAiE2yoFCJZq/vFZAj2YbpYLrG9U3thXjOemfCPNougfjVolG2X7Qb5OVS8yANQEBYrwH+dw5PRHOUVvInquqbulBESozRosUfV5JPG7XMMI7NJDREub8CYGK5fjJLvldHmB8dNMjYW6Mfk4mhEAtoDneKPM4PXwua46EeDnBglDrz1G+SYbPuQ31OBCPhBfY35UBoVpDc3x1ymt1WTu2hg+ExhU2NGITygqW40sFfgt3x5W2A2Fuh024YhLCHI9OA/M7ngeLMlUXIaEojUeofSuhIzDLz4CWlImLMI+XTHEIZfUSNWD9kvO5omNpeiAk7E2IQaji8/hpJcTEAQSK4occV7YOhIQzFZEJQWaKGrC1COOg/UKgAitF+DEEFyGW7yMTAg3bfpWbCWFmfmpWzwVIz1JY8d5FSMhS0QgJOb70LVyRFr/Xtlcl7yA07vEHohAC/BRyfhY2RcTvlx5+TstBWCV0SiMQakIWzfFzvxQBiOGVGWHWQTghzK9DExLm8fWFnwGVyduYcPcgK8LDQuKe8IIBodpHc7x+1feNMDAUVFuXGnpqhRnhnYOwTIgF4Qhl7Q6dBtbHASdu7q2/iFEt993eyorwMAneE5KOGIYiVLCLVVyNJh9CS5O3ouO+PmaEC/1MiE3wwxHK+Dy+RHHJ0v3Zq/Ot2unOxUQIa7EI1TE6DdQvAUWOv3eOW8tbM7a3siIE+xMKB0LCN1ATFtG9ZLlspRJ8DFRV/4H2+FvTsaaxIyzUT4Q6aS8bLaGB7SRrlel0hf+wamtWuU+AEG9DhSAkMEf9Rvubc2WKbURhCZeklcPohBxEQ3jYNmcTPpCm6X8TpqqwhO0B4X//TZiq/ib8m/D/hHDwT+vR/2NC4CD8/NdvRJibUBxSoCN8tB7dE/47Rj400NaMcZGlFOGn1ecLZpW304ZxCHNYgzs3y6gZCt2jfcdcaSxoMitCYdA+E/4Rh/DbPdbjnoxpWohuwtxklrHfq5AI4SoOYQFoRdThcmWK1wg4CfNXi8yhW8OMcOQgbMSZAcOiVsY3/eYXgau9R0JDz1reefwys3H4n6WDMJ4N4dNaD933a2SLAa2aPSH0TsH11g9WhJn/OgibsQkFoMzwbUH+7TZr6aReXmhI55sZ4Z9nwkeJkPJD97xlATtA0Sr6LYtWchcLQcNvR2BF+O4kHDEghGbcoQtr+tTvWl4YOwlfTYZww2Z1Te6jZjToEkcShOAv8UT4sP1itH4I1CJ2FKbcD7dDgRXh6PuZcPm+ZrYGLGtv2F71Wagrw9Ss+yV0BBkUa8Bg4yJc4aEm8jo+voahl/ohloHBuBaoMcWP+cNBKH5v4KEm+l4MWcOu+svNBPrzxUAOFIVPoIS3DAmtPcHoWqLY4rDl0qVO8yNBQgFkZmgZlyuH2VITX6Pms4PwqbnGBmLMfW2wjENdNX/J8dobcNt9dBA+N/FQE3dvIlBqaBlnZAv8XHUz1B2E7a7ZQZ+Iv79UK2AHmfm9/GOwGooOQnFoYgORwQ5aUv5vFfm4asdECCVsEsxkn7cslNH8nyuH2gMWVSPzxkXYkCQ0X7HZqw9U/B0/9WLyrgrWjR8uwh8NbCAyOo0gyCpWxhnZkKVqeAFzuHQRwlCDFt/yopqn0STwzJtSxE4d1mfoxJGx53bMrptwOZTW6EO9Ip2Cf50szNDcqJfce6FUtrkSfJnbaxfh9VbCZ8HBW3Vp9+sCTcDKON2561QeixdMx+a68aS7CV8aeL5gKaBi2/rEyeK4nc464cL0irGR1P0UXYTir66JF25MpRYxM+auDlsTVas1oDMci7dms40QtpsSXtawFVDGmBnzO2v4gf1NFuxuwhuspPclQvhwI5m3SWcpGd9hq1unMCqHKXMJPZQYVQOz8SIihOJfhKTPXEDG39VUvbxfHP89tQemFnxwNWDIbszmE0b4kbybWpIVrIwTW+evWKcWtLfAw6utmf+ZR0kaPmKED0MJS/qJCN/J6DQo7b0Yvp90ZErD06Pnk85DSVp1OBAKcu/K+4qvFoh/twlM940bAuGPhpRsSjx/AjXjfUHUhRKbcCRJ3ZOTOgihm0oJp0QHI7aoetIs9u7LW1NqLk+PngmXTYlLrNlLLnqNthy23BqSECbDxvfzOHDc/AGjKT4PTkwAP6R/UD3m/lJowlPJ5iIU2w2eRrSOSKEXLRz/1rEIM5Ik3TwQCa/fG5wSxkEgUwt3ezAVIUwVjb8cjzpvUXqCbkpaSUwOEb9tND7hGjpp2/Gok9CKpuYXR0KNsJc9JiGAqcKR7hFCK+lLJqeEIQS+ICYS4WAtSeeaFCP87EJEwlJiQopxkbDnLbswkErdpfNRF+G1JPEMp5UE7hGGAM5kiBKKz9CIJtaSSkhxNj96ENombH66HnUTPmwtI/KpToVMKeodu56EnRVMFa/ufIrc0PoCs75EWPJORNaF8xEd1YNwY43CZ/ejCOGDHU4Je0+SEJBVUFzMopiSTNgxrVSBlEToXdCvDa7Bxn7xw31vVsrnQp2WIhOu4Gfv/kIeRQkfrISRdGMRw9SUzGJ6MaF5rag3oR1mGjfXAYSGXbpxrd32ktVMv1jLUr4IgkTYsUzYRE2I3zr/KNnqcEe0VhFktVLZzSnKcRLh2jLhO2pCwrsR7HBqrlN7WZAcbY5v+6jU/Yk9ihMuh3Zlk3h72FPR+jQD2/WauJMT3uDx0U3NT21FIhysbRM+4o8SCK2ZMDTiKhU8ISKhleul5ndCaiW9K+iXHU65TvedivJ2QDvXSxLBhERCw077ksk/ZUQl3A/C7gfpUeIbrfbBhlMLnAHhfhBKTSxTeBIego3JqwSPS2gPQmKY8STcBxt+U8VYhPtMKDWfyOWQx9sBD5WNufn9Ce3eE6xmtkvyox6E4tM+KUqcZsMxCO1yFE6aPj0e9SIU936aRm0TjvAA2H3yetST8EE6aMQbMdRtZoOVPQgbr8Q46kt4yPspIGpX9UBdHT7TIU+Qc30Q4WkoSh3eiMFvDtDcgENsVkhFeH2zH4ow86c2zwjQAbDrkSiCCOFQ/L0Rjxb0GYQBhOLDgdBccQ83FDoB3nhkQgpC8XmYWkQN1CnIDB98GfwJ90uKUjq9KX91VgdA12JheEL9+8FRufX66QROgI1fAd25AMJzQE2lgPPSoRa1LPgjqP0YRCjqJ0TefWIf3R4BGy+B/dVAwuNMyg6pnbTRbA025hHwKXjNI5hQXEpnxN8gpIJTECW08KMROhDTmTC61ZGOgM0bmlUrGkJx+X5GXKdb3ww2x08CxyCFBSkJnRHVXKXXDbc89ATYfaFbd6QjFPX3U+o3za/UYurtyUOlZnAUDUVoHciQzmZMpcABnVOIgYA/aVeOaQlF/eVUo0JtUjDj7eoMOPxJvWRMTSgaz42Gg5G3GQcOvobPlD4GobU904ForjnmRtDZnPmk5rv/bCI6IZwSNx2I0FV5MTodVOq++s4HYxGK16fezZExeTogjFamw0Obz+HuuA1HaHXgGi7G28TtOHJEUOihW6/OLytC8fHG4alW5ki0jsuM1pITMKSHRiIUjRdXTDUT9NWByz+tGEpcIWRNKIqfbjNa4zGB3AE6t24+aMAwMTQOoXj9OmwgjDB3MB2QoPO1cuFJjeEHVaXNhBCOxveu5GaEhuww8lYwGIy2JsLXDD8CYxGK189NtxktyNXtKPYZSQC980sykZ/dvAlqODEnhOkfdVXbkOtNJ467gsHtGhl9toM+RXLQmIQw4rxidrQgpa/RYBDFloPOZitheDCCRnXQ2ISi3r7pop/HpjTXm9vRgNqY8MHO6PYLHXt7vu5riDKbNSEcjp/dLmbHo8Ouv2DFE4AJMrAq23ytVwTj2f65bUd3UBaEUD/fcV89mhJqu9qMOp3OwNbJH23BL2++tvvniD+hKb2GrdGSIBSv269kOzpJt9vVer2+3WsD/7nao/l8X7P79BjrRRLMCCHjw8vQw5CoSU8KeLrRHX4so59WcIgJIZT+8doIhKRVoyu9fDIwny1WhLAibz/fYBkyiprD11/xwqdL7AhFy1v/HAa7q6/1msPuxzJm9HSLKaGlx6dXqdsMZiHRNbcvH1GmD75iTgjd9fHzYzv0Da8EvGH35mebOZ6YCCGUcX39+GdzOOw2Gw1/Uvj/m93hsPHj4fqaVWxxKxnCgx5+PX1/fYehsWuhYmDwi9L7y/enzzhlZ6ASJbSkLx/b7c/2x8vLzfYGSrL+s7358ePj87PdflwmYziHEic8yND1a6d0PXG0g/4HF2vIvOFzVQ8AAAAASUVORK5CYII=;" vertex="1" parent="1">
          <mxGeometry x="253" y="138" width="30" height="30" as="geometry" />
        </mxCell>
        <mxCell id="TVotVtl5lSkwfosgHtOw-35" value="ELB" style="shape=image;verticalLabelPosition=bottom;labelBackgroundColor=default;verticalAlign=top;aspect=fixed;imageAspect=0;image=data:image/png,iVBORw0KGgoAAAANSUhEUgAAAOEAAADhCAMAAAAJbSJIAAAA7VBMVEX1hTb///+dUCX1gjD1hDP7y6z1fyf1gCr4pGn1hDH7yKj+8er959n2j0T2k1D1gS37z7P6vpn0fB3/9/H5tpH96uH3om794c2bTB3//Pny6uaZTSSaSRikXDL71LzXvrLkezOZRhH1ij32iz/vgTWWQQDdeDTPby/3pXP2llb82sX5tIn4rXz6v5v0eRT3nGDr3dWqWCi1Xyrm0sfbw7e7iXHIai3HoZG0fGCtcFGkWzH2jT/3oGT4sIX0dQDlw7LacCTCYh+zWyDKdkS+ckazb0mkY0GrdF20gWrCloC4gWPQsqPFnIfMqZq7ZTD140o2AAARw0lEQVR4nO2daVfjuBKGvQibrE5ishiH7AlkIwsQIB3uMvcO0zTd/P+fc2VnsyXZlm1Z7nPPvB/m9GEM5KFKVaXSYkHkJMPQnTIMXr9YSPw36Pl6q3RRnr5d7s66fJuWL0qtel5P/PcnSpibzGe1RbEvqIqqabJTmga/JvSLi9psPqkm+SESItSr+fJOrUAwWQZA8BIAkFVVKpVFuV7NJfNRkiDMt+a1fkWVPcFwyarS25Vb+QQ+DXPCXLZWFFTZ226e9syooFgrM4dkSqjny4V7JQLdiVJWK9+mdabhhyFhPnunqNHpTpSqejmfsPtYzAhbdwUtzMjzk6z2axesEiYTQiOfVRQtvvnOArKiXLFJlgwIjfr0m8KQ7ii1N5swMGR8wnqtz2D0kQS03qKUNqE+uazEiJ2BjHKl2Irpq/EI67OMlhjeXrKya8Xy1TiE1VkvaT6bUajVUyHMldmGTz/Gylv0Uicy4cVY5YNnSytko7pqRMLqXYZVeqcT0BYRXTUSoT7XeAxAt+TKNNL8Kgph/k7hNADdUhctPoTZfiYNPqiMMOVAWK2lY0BbQBmHHo1hCSdj/iPQKRhUEyU05j2+IRQX0KbhyrhQhLmUQoxbyiJU+g9DmN8lMUkKL60YpgUQgnBSSNtDj5KFEJMqesKL38FDDwKVKXURR0toZDO/DyAUfbyhJDSueM0jaKVdUlqRjlCfVtImwqTs6JY7qAj1Gc+ZEq20BRUiDaFxmW4d4yW5SDPZoCDUL3+PNIhLK1JYMZjQmP6eFrQkL4KtGEhoTLnneVkN1PEzabvAiBpIeMU9isq1q0DVjrlLuQzKi0GEJf5pUKEoyc4fS74KsGIAYSuFSka5CCa8OLcZ1HkcwnpCKxIsCYWKv819CavjNGYTYQlB37ez4Ueo36WSJ8ISwszvNyX2I5ymU6uFJhTUnU9A9SEspVSMhicUlHIUwnwhpflSBEIAvKONJ6G+S6tYi0DoNxQ9CcupVaNRCOGEOCxhPb0pbyRCQfHqFHsQ5orp9dWiEYKeR1b0ICyntfgCg0YlEiEs2Mkpg0w4SamxBjStV1xQ9HsJhF5+SiTU0+j9Ak0Rxm/ZCVWXkEQIVOKMn0iY5dy2ALKmVHqzVr5K2+clEQraHS1hvs/RR4GsCoXxrBRuJzSRUCDmfQKhMeOWCmVVKdTmpXrofRZkQmLbhkBY5xVHlcqiPKlG2tRFJiQGGwIhr1SYCbuaG0woKLgRccISr2pGe2NPqOJbGTBCY8EtU6jRt3J5EYIC9jMxwiy/akbeMScU1Dc0aqGEOa6tmSg7gPwJQQ81IkrY4pns5buou2M9CQV15k9ofONakCpRjehNKNwjtQNCWOJarwEtoJsbhVBDwilCuOM4CoFSiLy/2YcQIEtubsIWPz5B7nnsp8hHnD0dpbkrCReh8cavOaNceszJjRpFreNHKI9dhY2LsMptUqEpZa8wWo44xz9LdTmBi3DOKc4A7c5zstSqROvTOCSPPQk5pQqt6L0tPV8AsQmFivPv5yTk00EEFZ+NMDosqWhWSP0JVWeT30nIZalJG6NZXs+fLWrtz1Xn1UCVfb1NHjsGuYMwV0zeSYGGbbjP1zKnyLBvEKmVQPkvGoGeI9Y4CJNfsgdKHztvly1ocuHw70mP0UdwuumZMPlkKPfLKF/9m7WnU903yfLMurTAsVvqTFhNejVN2aHFSu5KOFSJVnDRGbZPlDqBsJ5sMtQqczTHT8bHLZ3WDjWD5ZKzw03PhIn2EEHmDp2ZVmeVs820scG03AAZAiE2yoFCJZq/vFZAj2YbpYLrG9U3thXjOemfCPNougfjVolG2X7Qb5OVS8yANQEBYrwH+dw5PRHOUVvInquqbulBESozRosUfV5JPG7XMMI7NJDREub8CYGK5fjJLvldHmB8dNMjYW6Mfk4mhEAtoDneKPM4PXwua46EeDnBglDrz1G+SYbPuQ31OBCPhBfY35UBoVpDc3x1ymt1WTu2hg+ExhU2NGITygqW40sFfgt3x5W2A2Fuh024YhLCHI9OA/M7ngeLMlUXIaEojUeofSuhIzDLz4CWlImLMI+XTHEIZfUSNWD9kvO5omNpeiAk7E2IQaji8/hpJcTEAQSK4occV7YOhIQzFZEJQWaKGrC1COOg/UKgAitF+DEEFyGW7yMTAg3bfpWbCWFmfmpWzwVIz1JY8d5FSMhS0QgJOb70LVyRFr/Xtlcl7yA07vEHohAC/BRyfhY2RcTvlx5+TstBWCV0SiMQakIWzfFzvxQBiOGVGWHWQTghzK9DExLm8fWFnwGVyduYcPcgK8LDQuKe8IIBodpHc7x+1feNMDAUVFuXGnpqhRnhnYOwTIgF4Qhl7Q6dBtbHASdu7q2/iFEt993eyorwMAneE5KOGIYiVLCLVVyNJh9CS5O3ouO+PmaEC/1MiE3wwxHK+Dy+RHHJ0v3Zq/Ot2unOxUQIa7EI1TE6DdQvAUWOv3eOW8tbM7a3siIE+xMKB0LCN1ATFtG9ZLlspRJ8DFRV/4H2+FvTsaaxIyzUT4Q6aS8bLaGB7SRrlel0hf+wamtWuU+AEG9DhSAkMEf9Rvubc2WKbURhCZeklcPohBxEQ3jYNmcTPpCm6X8TpqqwhO0B4X//TZiq/ib8m/D/hHDwT+vR/2NC4CD8/NdvRJibUBxSoCN8tB7dE/47Rj400NaMcZGlFOGn1ecLZpW304ZxCHNYgzs3y6gZCt2jfcdcaSxoMitCYdA+E/4Rh/DbPdbjnoxpWohuwtxklrHfq5AI4SoOYQFoRdThcmWK1wg4CfNXi8yhW8OMcOQgbMSZAcOiVsY3/eYXgau9R0JDz1reefwys3H4n6WDMJ4N4dNaD933a2SLAa2aPSH0TsH11g9WhJn/OgibsQkFoMzwbUH+7TZr6aReXmhI55sZ4Z9nwkeJkPJD97xlATtA0Sr6LYtWchcLQcNvR2BF+O4kHDEghGbcoQtr+tTvWl4YOwlfTYZww2Z1Te6jZjToEkcShOAv8UT4sP1itH4I1CJ2FKbcD7dDgRXh6PuZcPm+ZrYGLGtv2F71Wagrw9Ss+yV0BBkUa8Bg4yJc4aEm8jo+voahl/ohloHBuBaoMcWP+cNBKH5v4KEm+l4MWcOu+svNBPrzxUAOFIVPoIS3DAmtPcHoWqLY4rDl0qVO8yNBQgFkZmgZlyuH2VITX6Pms4PwqbnGBmLMfW2wjENdNX/J8dobcNt9dBA+N/FQE3dvIlBqaBlnZAv8XHUz1B2E7a7ZQZ+Iv79UK2AHmfm9/GOwGooOQnFoYgORwQ5aUv5vFfm4asdECCVsEsxkn7cslNH8nyuH2gMWVSPzxkXYkCQ0X7HZqw9U/B0/9WLyrgrWjR8uwh8NbCAyOo0gyCpWxhnZkKVqeAFzuHQRwlCDFt/yopqn0STwzJtSxE4d1mfoxJGx53bMrptwOZTW6EO9Ip2Cf50szNDcqJfce6FUtrkSfJnbaxfh9VbCZ8HBW3Vp9+sCTcDKON2561QeixdMx+a68aS7CV8aeL5gKaBi2/rEyeK4nc464cL0irGR1P0UXYTir66JF25MpRYxM+auDlsTVas1oDMci7dms40QtpsSXtawFVDGmBnzO2v4gf1NFuxuwhuspPclQvhwI5m3SWcpGd9hq1unMCqHKXMJPZQYVQOz8SIihOJfhKTPXEDG39VUvbxfHP89tQemFnxwNWDIbszmE0b4kbybWpIVrIwTW+evWKcWtLfAw6utmf+ZR0kaPmKED0MJS/qJCN/J6DQo7b0Yvp90ZErD06Pnk85DSVp1OBAKcu/K+4qvFoh/twlM940bAuGPhpRsSjx/AjXjfUHUhRKbcCRJ3ZOTOgihm0oJp0QHI7aoetIs9u7LW1NqLk+PngmXTYlLrNlLLnqNthy23BqSECbDxvfzOHDc/AGjKT4PTkwAP6R/UD3m/lJowlPJ5iIU2w2eRrSOSKEXLRz/1rEIM5Ik3TwQCa/fG5wSxkEgUwt3ezAVIUwVjb8cjzpvUXqCbkpaSUwOEb9tND7hGjpp2/Gok9CKpuYXR0KNsJc9JiGAqcKR7hFCK+lLJqeEIQS+ICYS4WAtSeeaFCP87EJEwlJiQopxkbDnLbswkErdpfNRF+G1JPEMp5UE7hGGAM5kiBKKz9CIJtaSSkhxNj96ENombH66HnUTPmwtI/KpToVMKeodu56EnRVMFa/ufIrc0PoCs75EWPJORNaF8xEd1YNwY43CZ/ejCOGDHU4Je0+SEJBVUFzMopiSTNgxrVSBlEToXdCvDa7Bxn7xw31vVsrnQp2WIhOu4Gfv/kIeRQkfrISRdGMRw9SUzGJ6MaF5rag3oR1mGjfXAYSGXbpxrd32ktVMv1jLUr4IgkTYsUzYRE2I3zr/KNnqcEe0VhFktVLZzSnKcRLh2jLhO2pCwrsR7HBqrlN7WZAcbY5v+6jU/Yk9ihMuh3Zlk3h72FPR+jQD2/WauJMT3uDx0U3NT21FIhysbRM+4o8SCK2ZMDTiKhU8ISKhleul5ndCaiW9K+iXHU65TvedivJ2QDvXSxLBhERCw077ksk/ZUQl3A/C7gfpUeIbrfbBhlMLnAHhfhBKTSxTeBIego3JqwSPS2gPQmKY8STcBxt+U8VYhPtMKDWfyOWQx9sBD5WNufn9Ce3eE6xmtkvyox6E4tM+KUqcZsMxCO1yFE6aPj0e9SIU936aRm0TjvAA2H3yetST8EE6aMQbMdRtZoOVPQgbr8Q46kt4yPspIGpX9UBdHT7TIU+Qc30Q4WkoSh3eiMFvDtDcgENsVkhFeH2zH4ow86c2zwjQAbDrkSiCCOFQ/L0Rjxb0GYQBhOLDgdBccQ83FDoB3nhkQgpC8XmYWkQN1CnIDB98GfwJ90uKUjq9KX91VgdA12JheEL9+8FRufX66QROgI1fAd25AMJzQE2lgPPSoRa1LPgjqP0YRCjqJ0TefWIf3R4BGy+B/dVAwuNMyg6pnbTRbA025hHwKXjNI5hQXEpnxN8gpIJTECW08KMROhDTmTC61ZGOgM0bmlUrGkJx+X5GXKdb3ww2x08CxyCFBSkJnRHVXKXXDbc89ATYfaFbd6QjFPX3U+o3za/UYurtyUOlZnAUDUVoHciQzmZMpcABnVOIgYA/aVeOaQlF/eVUo0JtUjDj7eoMOPxJvWRMTSgaz42Gg5G3GQcOvobPlD4GobU904ForjnmRtDZnPmk5rv/bCI6IZwSNx2I0FV5MTodVOq++s4HYxGK16fezZExeTogjFamw0Obz+HuuA1HaHXgGi7G28TtOHJEUOihW6/OLytC8fHG4alW5ki0jsuM1pITMKSHRiIUjRdXTDUT9NWByz+tGEpcIWRNKIqfbjNa4zGB3AE6t24+aMAwMTQOoXj9OmwgjDB3MB2QoPO1cuFJjeEHVaXNhBCOxveu5GaEhuww8lYwGIy2JsLXDD8CYxGK189NtxktyNXtKPYZSQC980sykZ/dvAlqODEnhOkfdVXbkOtNJ467gsHtGhl9toM+RXLQmIQw4rxidrQgpa/RYBDFloPOZitheDCCRnXQ2ISi3r7pop/HpjTXm9vRgNqY8MHO6PYLHXt7vu5riDKbNSEcjp/dLmbHo8Ouv2DFE4AJMrAq23ytVwTj2f65bUd3UBaEUD/fcV89mhJqu9qMOp3OwNbJH23BL2++tvvniD+hKb2GrdGSIBSv269kOzpJt9vVer2+3WsD/7nao/l8X7P79BjrRRLMCCHjw8vQw5CoSU8KeLrRHX4so59WcIgJIZT+8doIhKRVoyu9fDIwny1WhLAibz/fYBkyiprD11/xwqdL7AhFy1v/HAa7q6/1msPuxzJm9HSLKaGlx6dXqdsMZiHRNbcvH1GmD75iTgjd9fHzYzv0Da8EvGH35mebOZ6YCCGUcX39+GdzOOw2Gw1/Uvj/m93hsPHj4fqaVWxxKxnCgx5+PX1/fYehsWuhYmDwi9L7y/enzzhlZ6ASJbSkLx/b7c/2x8vLzfYGSrL+s7358ePj87PdflwmYziHEic8yND1a6d0PXG0g/4HF2vIvOFzVQ8AAAAASUVORK5CYII=;" vertex="1" parent="1">
          <mxGeometry x="289" y="280" width="30" height="30" as="geometry" />
        </mxCell>
        <mxCell id="TVotVtl5lSkwfosgHtOw-36" value="" style="shape=image;verticalLabelPosition=bottom;labelBackgroundColor=default;verticalAlign=top;aspect=fixed;imageAspect=0;image=data:image/png,iVBORw0KGgoAAAANSUhEUgAAAOEAAADhCAMAAAAJbSJIAAAAb1BMVEX////3mB/3kQD3kwD3lRP97Nr5sWb5smn3lxf//Pn3lgv5tGn+7+D82Lj3lAr//vr6xpH5sF/7z6n7zqP3njD5rVr+9ev83b7++PH4qlL4pEP94cf817T4oDf96NP6yJT6wof6u3r7zaX5t3D4p0fmatluAAADe0lEQVR4nO3d7VKjMBSA4TTQiloRLdZ+Y7fe/zVuddxdxZakw0kOZt/3t7PhGUYG5GwwhoiIiIiIiMjRdajutWXvPV/VN8GqJxtt37qweTEKVpHbm2dVYGMD8j6yL4rAmQ3ueyNWasBxFOCRuNMSLvM4wmKlBJxGOoXHkzjWET5msYTZTEf4UsYS5gcd4W2kX8Oj8Cl1YYEQIUKECBEiRIgQIUKECBEiRIgQocfh5WXf7HLAwtK+7qveKf1F2EOYZ81C5+BEcguz5U/2eQjLifYh9swlLLbaR9g3l1DrnZhcDqHW6xTBHMLsTvsAe+cQ2nnr5+fjUE2vVYQ3X5bd7QsbsNUsBNIhLD7NbN3f2rA3sUUWYrLIX7ioI7wQt42isI7yFGIf1YQvkYY2vl3bYgnnseZuyr2ScBZv7kb4guorXIafX/xIegDOVxiJdywTnrf1FUY7haNM+GqKEKF8CBEibIUwQAgRImyFMEAIESJshTBACBEibHWhsCiz/i/Zfg1XmNtVtbnr22Y6WKF9ED42meSEVn1viNOJCe1a1XE+KaFVmstzJyQc8OiUkFD6hZFgUsLhzi/KCL9verGYBuvCTYuEhF/H3+bVqP+tzflG1SXTDDLC/OHzv9nYMuhtbFFeMnYTQDiJMLZh/ed65YWHKFMb1nsoRVz4HGvPIt8ROHHhNtKTpPc9hrRwF2/PIs+5G2lhE21Hn9Lzeiot3Mfb0cfzWiMtnMQTXiFE+B7CP6shDBBChB8lIDwkL6y67yMTEDoe5xIQmu4n8hSETScxBaGpuw4+CeE86zj6JIRmvj1/tUlD+Pbftmx2eruOLBGhMbtZc3q7jmSEzhAilA8hQoSt1RAGCCFChK3VEAYIIUKErdUQBgghQoSt1RAGCCFChK3VEAYIIcL/T+hYLQHha+dJTEHYPTuVgrD7288pCM1t10lMQrjoGrtJQmjGHcQ0hGa6teeMiQiN2WyttdmJ/n0H6IcLjZmv7zan+ruhwo8XOkOIECFChAgRIkSIECFChAgRIkSIECFChAgRIkSIEKFvjj2LJIUHHaFjzyLBykpHuI63f6nWRv7RPmZSKAHNLNY+wnqfKlhFudbk33aBj9eijnCxKWvNjfyvn85OFglV2CfhD7Bf2np5erBIJmuXA/geymLd+5tBZ1sP90sTRERERERENIx+A6ddqTOmNZ14AAAAAElFTkSuQmCC;" vertex="1" parent="1">
          <mxGeometry x="198" y="342" width="25" height="25" as="geometry" />
        </mxCell>
        <mxCell id="TVotVtl5lSkwfosgHtOw-37" value="" style="shape=image;verticalLabelPosition=bottom;labelBackgroundColor=default;verticalAlign=top;aspect=fixed;imageAspect=0;image=data:image/png,iVBORw0KGgoAAAANSUhEUgAAAOEAAADhCAMAAAAJbSJIAAAAb1BMVEX////3mB/3kQD3kwD3lRP97Nr5sWb5smn3lxf//Pn3lgv5tGn+7+D82Lj3lAr//vr6xpH5sF/7z6n7zqP3njD5rVr+9ev83b7++PH4qlL4pEP94cf817T4oDf96NP6yJT6wof6u3r7zaX5t3D4p0fmatluAAADe0lEQVR4nO3d7VKjMBSA4TTQiloRLdZ+Y7fe/zVuddxdxZakw0kOZt/3t7PhGUYG5GwwhoiIiIiIiMjRdajutWXvPV/VN8GqJxtt37qweTEKVpHbm2dVYGMD8j6yL4rAmQ3ueyNWasBxFOCRuNMSLvM4wmKlBJxGOoXHkzjWET5msYTZTEf4UsYS5gcd4W2kX8Oj8Cl1YYEQIUKECBEiRIgQIUKECBEiRIgQocfh5WXf7HLAwtK+7qveKf1F2EOYZ81C5+BEcguz5U/2eQjLifYh9swlLLbaR9g3l1DrnZhcDqHW6xTBHMLsTvsAe+cQ2nnr5+fjUE2vVYQ3X5bd7QsbsNUsBNIhLD7NbN3f2rA3sUUWYrLIX7ioI7wQt42isI7yFGIf1YQvkYY2vl3bYgnnseZuyr2ScBZv7kb4guorXIafX/xIegDOVxiJdywTnrf1FUY7haNM+GqKEKF8CBEibIUwQAgRImyFMEAIESJshTBACBEibHWhsCiz/i/Zfg1XmNtVtbnr22Y6WKF9ED42meSEVn1viNOJCe1a1XE+KaFVmstzJyQc8OiUkFD6hZFgUsLhzi/KCL9verGYBuvCTYuEhF/H3+bVqP+tzflG1SXTDDLC/OHzv9nYMuhtbFFeMnYTQDiJMLZh/ed65YWHKFMb1nsoRVz4HGvPIt8ROHHhNtKTpPc9hrRwF2/PIs+5G2lhE21Hn9Lzeiot3Mfb0cfzWiMtnMQTXiFE+B7CP6shDBBChB8lIDwkL6y67yMTEDoe5xIQmu4n8hSETScxBaGpuw4+CeE86zj6JIRmvj1/tUlD+Pbftmx2eruOLBGhMbtZc3q7jmSEzhAilA8hQoSt1RAGCCFChK3VEAYIIUKErdUQBgghQoSt1RAGCCFChK3VEAYIIcL/T+hYLQHha+dJTEHYPTuVgrD7288pCM1t10lMQrjoGrtJQmjGHcQ0hGa6teeMiQiN2WyttdmJ/n0H6IcLjZmv7zan+ruhwo8XOkOIECFChAgRIkSIECFChAgRIkSIECFChAgRIkSIEKFvjj2LJIUHHaFjzyLBykpHuI63f6nWRv7RPmZSKAHNLNY+wnqfKlhFudbk33aBj9eijnCxKWvNjfyvn85OFglV2CfhD7Bf2np5erBIJmuXA/geymLd+5tBZ1sP90sTRERERERENIx+A6ddqTOmNZ14AAAAAElFTkSuQmCC;" vertex="1" parent="1">
          <mxGeometry x="386" y="342" width="25" height="25" as="geometry" />
        </mxCell>
        <mxCell id="TVotVtl5lSkwfosgHtOw-38" value="" style="shape=image;verticalLabelPosition=bottom;labelBackgroundColor=default;verticalAlign=top;aspect=fixed;imageAspect=0;image=data:image/jpeg,/9j/4AAQSkZJRgABAQAAAQABAAD/2wCEAAkGBxISEhAQEBMSFhMQEBAQEhASFRIWFRIVFRcWFxYSGBgYHiggGCYlGxUVITEjJykrLi4uFx8zODMtNygtLi0BCgoKDg0OGxAQGjclIB8tLS0rLTUrLSstLi0tMC0tLSstLS0rLS81LS0tLS0rKy0tLS41Ky0tLTYtKy0tLS0tLf/AABEIANYA7AMBIgACEQEDEQH/xAAcAAEAAQUBAQAAAAAAAAAAAAAABAEDBQYHAgj/xABFEAACAQECBwsICQMFAQAAAAAAAQIDBBEFBhIhMUFRBxMVIjJCYXGBkZIUUlNyobHB0SMzNFRjdKKz4UNigiRzwvDxJf/EABkBAQADAQEAAAAAAAAAAAAAAAADBAUBAv/EACcRAAIBAwQBBAMBAQAAAAAAAAABAgMEEhETMVEhFTJBgQVSYXEi/9oADAMBAAIRAxEAPwDuIAAAAAAAAAAAAAAAKNluraYRuy5RjfoypJX94BdBG4Qo+lp+OPzHCFH0tPxx+Z3RnNUSQRuEKPpafjj8xwhR9LT8cfmNGNUSQRuEKPpafjj8xwhR9LT8cfmNGNUSQectd+vUejh0AAAAAAAAAAAAAAAAAAAAAAAAAMxuGMNULLDfbTVhShn5T40nnzRis8n0JNnUm3og3oZFsgYXwzQssN8tNWFKOrKfGlddmjFZ5adSZzLGLdUqzvhg+nvcdHlFdJzfTCnfcuuV/qnP7VXnVm6tac6lR6alSTlLqvehdCzF2lZSl5n4KdW8jHxHydCxg3U6k74WGnkL09ZJzfqw0LXpZpCtE60p1K851Ju6+U22+zZ2EElWHndho0aMKftRn1a06nLL+9R2Ib1HYj2CyVjxvUdiG9R2I9gA8b1HYiqoxzZlpR6KrV1oA3PBWH7RZ80J5UPRVL3Hs1o3PBGN1CrdGb3mfmzayJPPono0vXcc5DRRq20Kn8ZcpXM4f1HaFPb/AB3ns5NgnDtos1ypzvgv6NS+ULv7dcOzN0M3PA+NtCrdCX0NR3cSdzhJ7Iy0e59BnVbWcPPKNCldQn44ZswPEam3N06U9Gh9buPZWLIAAAAAAAAAAAAAAAKNlTW8dsaaeD6LrT4053xoUVm3ye1vYtbOpNvRHG9PLMXujY7qwUt6pNO1119FDSqMb7nVn8FrfQmzjVqrTqzdWtOdSo8zqVHfLqWqK6FciDb7bUr1aloryyqtWWVOWroilqS0JExmva0lBf0yrms5vxwUABbKoJVh53YRSVYed2HVycfBKABIRgAAAqtXWihVautAGwAAhJAGr8zAAMjgjGipYp0stylZpScKlPTvad11SGvNdyVqbuznU7LaVUipwalCcVOE4u+MovQcNwvyYes/cZvELGryWSs1Z/6epLiS9DJ/8W32Mp3VrlHOPJdtbnF4S4OvA8Um7s93Wta2nsyTUAAAAAAAAAAAAMVjHhmjZKFS0V5NQp83XUlzYRv5Tbu0HzpjHh6tbq8rTXed8WnTXJow1QXxetnT93v7NYvzj/aqHHS9awWmRSupvXEqjJsxiJVS1rUr+vMX6bS5KM02SCkpJaWl1kKdeT13dRaOup0cUOyZK1LVe/YjzTwhON+Tkq/ar/eRQeHOR6wRN4Uq7YeBDhSrth4EQrxeM5djBdE3hSrth4EOFKu2HgRCvF4zl2MF0TeFKu2HgQ4Vq7YeBEK8XjOXYwXRsVmxrlorUlL+6k8l+GV6fejLWXDlmqXJVVCT5lZb2+98V9jNHDQU2g4JnSnFrt0PU+08nPLJaqlL6qpOHRFvJ7YvivuMxZcaaquVWEKi2x4kvjF+w9qojw6b+DO4X5MPWfuMY0XKuGaNdQjDKjPKbyJq7VqazM8E8GmiGSafk6Bue418iw2mT2Wes3nf4Uvg9fYdKTPnqwr6az/mbP8AuRPoYyL6lGE018mvZVZTho/gAAolwAAAAAAAAA5du9/ZrF+cf7VQ46fROP8AirHCNKlSlVlSdKtvsZRhl3vJcbmv8mcNxswC7Bap2R1N9cYU574oZF+Wnmuvei7aX7aaxx+SlcweuXwYgFUZFQS0JIuRjkUpS0IEaUnoTLkbK9bSJgJFTR4zZYjZVrvZNsNnhxr4xejSryySrDzuwkjFaniUnoXvJqfmQ7h5NT8yHcXASaIj1Zb8mp+ZDuHk1PzIdxcA0Q1Zb8mp+ZDuCs1PNxIaVqLhVautDRDVk+0YBs0/6eQ9tNuPs0GOr4qL+lWfVUjf7YmxAgcUSqbNMr4u2mOdQjNback/Y7jG16UofWQnD14yXteY6Kesp6PY855dM9Kp2c00mSsWE2ro1L2tU+cuvaZ/DeDaLjF73GMnJ3zppRejozPtNbtWDpwva48VriuMuuPyOKMo+UdyjLwzYcHNOrZmmmnaLPc1of0kT6GOL4jYgOpSslula5RhVdOsrPGjfnjK9Ryr3pydKSOzozrytGo1p8GjaUZU09fkqACmWwAAAAAAAADS91DGitg+z0p2eMHUr1t5jOpe1TWRKTkoq7K5O3Xr0HCLfbq1epKtaKkqtWd2VUndfm0JJJKKWxK461u9/ZrF+cf7VQ46aFtFY6lG6k8tCqMmzGIybL1L5KNQoACUjBKsPO7CKSrDzuw6uTj4JQAJCMAAAFVq60UKrV1oA2AAEJIAAAQcL8mHrP3GNTMlhfkw9Z+4xhJHg8Pk2HFfGm02adKjGSnQnVp03RqK9RU5KLcJaY6b7s66DtUUfPdg+us/5mz/ALkT6FMn8hCKkmlya1hNuDTfAABnl4AAAAAAAAA5ru4WKrVs9jVGlVquNrypRo051GlvU1e1BNpXtHGq9CdOWRVhUpySTcKsJwkk9DyZJM+prTK67Jai3LPlNRv74u//ALnODbrsr8KVWnet4s+ddTLltUftKtzBaZGnImu1R6e4hAvxk1wUHFMmeVR2P2FPK1sfsIgO7jOYIl+VrY+8uUMI5N/Evv6bvgQANyQwRlOGPw/1fwOGPw/1fwYsHd2XZzbj0ZThj8P9X8Dhj8P9X8GLA3Zdjbj0ZThj8P8AV/AWGPw/1fwYsDdl2NuPRtCxshroT7Jx+R6WNdLXRq+KDNVB5zZ3CJtqxpoa6dZeB/E9rGez7Ky/wi/+Rp4GbGCNpt2HbPNRUXUvUm3lQa1dDZGjbqT56XWpL4Gv3lGz0qskeXSTN0wTZas6lmnTpV5wdooSVSFGtKDSqRvllqOTctt59AGm7nVf/wCZg9RnBXUrpJyinynm0P4G4xWwy7mu6svK4NS3oqlHw+SoAKxYAAAAAAAAAOW7v0E7NYk0mvLND/2qhxyEEsySS2JXHZN3v7NYvzj/AGqhx00bb2FC6f8A0VRPlRj5qICMmy7TRSmy1vEdnvKeTx2e1l0EmK6PGrLXk0dj7y9ZrBCV9+Vmu0P+ChKsPO7AorXgOT0PHBVPbPvXyHBVPbPvXyJoPe3Ho8Zy7IXBVPbPvXyHBVPbPvXyJoG3HoZy7IXBVPbPvXyCwVT2z0rWvkTSq1daG3HoZy7Jaxbs3m1H11H8Eeli9ZfRy7akjJgixR7yfZj1gOy+hXbKb+J7WBrN6Cn25b+JNAxQyfZicJYPoxjDJo048Z6FpzdJDjCK0RiuqMfkZTC/Jh6z9xjCWCWhHJs92GjF17O8mN/lNnd9yv8ArIn0SfPVg+us/wCZs/7kT6FMz8l7omn+P9rAAM00AAAAAAAAADVd0DFWOEaEacqroyo1N9p1LlKDlkuN007s3GetatOg4Lh3A1ax152a0ZG+QUZX05OUZRlokm0n2NHcN07Gmtg6jQqUIU5zrV3S+lTaisiUr+Lc+acQw/hqrba8rTaFTVSUYQapRlGN0b7s0pN69pdtcvoqXOP2QEZNmLRPVeL19+Y0abRnTRcAQJSMEqw87sIpKsPO7Dq5OPglAAkIwAAAVWrrRQqtXWgDYAAQkgBVRews2i1U6f1lSnH1pJPuOHSNhfkw9Z+4xvw17CmF8PUXFKk5TkpN6HGOja/ga9arXOpy3m8xZors19p3dSQ222dOxOxNnaVQtlSrGFDLhVpqHGqVciV66IpuPS3sR16LOGYl4626lGy2RU7M7NGdKjFyhUVRxlNJ58q58rYjuaRj3bqOSc/o17ZU1HSH2VABVLIAAAAAAAABy7d7+zWL84/2qhx07Ju8027LZJJNxhbE5SSd0b6c4pt6r20utnGzRtvYULr3/QBVE2pZovo6i1GLfBVctCEndoLka8lr7z3KyvU0/YWZwa0poaSQ1TL8bXtXcTLHbqaysptX3XZrzFA6qkkeXBMzvCVLzn4WOEqXnPwswQPW9I5tRM7wlS85+FjhKl5z8LMEBvSG1EzvCVLzn4WFhKlm4z0rmswQG9IbUTbLRjTSX1cKk+mV0V8zHV8aK75EacOm5yfezCHlzSaWt6FrfUtLPDkz2orol2jCNapy6tR9CeSu6NxFUEtRkrLgK01LmqTgnzqzyP08p9xl7NipBZ61WUv7aayI+J3t+w5i2HJI1hK9pJNt6EtLMtY8GJcarc3qhqXXtM3a7DSpRjvVOMW5NOSvcmrtcnnZEJ6dJcshnU+EX7A/prP+Zs/7kT6FPnvB0W69mSTbdpoXJK9u6cW83Um+w+hCh+R90S/+P9rAAM00AAAAAAAAACJhKxUqtKrSrRUqdWLjUhqknmZ8746YqVMHVsh3yoVG3Z62prTvcn5y9qzn0mYjGXAdK2UJ2atHiTWaa5VOa5M0S0qrg/4RVaamtD5kRk2eMYMC1bFaJ2WuuNHPCa5NWDeapH4rUz2zYotNaoyasXF6MoACYiLc6EXq7VmKUsG5V900rtqb9xdJVh53YcwTZ3JpETgd+kj4ZDgd+kj4ZGVB62onndkYrgd+kj4ZDgd+kj4ZGVA2ojdkYrgd+kj4ZDgeXpI+GRlSq1daG1Ebsi7ZsVqMfrZVKj2J73D2cZ96MvZLPTpK6jCFP1Ek31y5T7WXARpJHpyb5AAPR5IOF+TD1n7jGN/9+Bk8Lviw9Z+42zc8xUcsm3WiObTZ6Utf4sk/Z3nKlWNKGTPVOk6s8UZTEDFXydK01432ipHiweijB7el6+43hK7R1hFTCqVJVJZSNynTjCOMQACM9gAAAAAAAAAAAGr48YpU8I0HCd0atNudmr66c3zHti8ya15taTOL4cwHabHLJtVJwV9yqxvlRl1TuzdTufQfSBZrWaMouEoxlCSyXTkk4tbGn/4WaFzKl45RBWoRqf6fMoOtYw7l1CpfOxS8nm8+9NOVnk9iWmn/AI5l5pzXDeA7TY5ZNqpSgnyai41KXVNZux3PoNOlcQqcPyZtW3nT/wAMeSrDzuwikqw87sLC5K74JQAJCMAAAFVq60UKrV1oA2AAbFreZJZ23sSICQDWkr227lFJtt7ElnZsOCsT69W6Vb6GD2q+o+qOiPbn6DdcEYBoWdfRQuk1c6suNUl2vR1Zl0FWrdwh4XllqlaTn5fhGl4FxLnWnSqWuOTRg3NUZPjVZXcVSWqOl3aXrzX39Gpwu+CWhJaEj0olTNq1pVHrI0qVKNNaIAAiJQAAAAAAAAAAAAAAAAAA0Wa9njOLhJRlGSalCaUoyWfM0+m7uLwAOdYw7mFCpfOyS3ief6N3ypS09sduY0WpivbbPOUKtnm9F06ay4SW1NHf2UjG4t0rypDnyVqtrCf8OAcE2n7vW8EhwTafu9bwSPoAE/qMv1IPT49nz/wTafu9bwSHBNp+71vBI+gAPUZfqPT49nz/AME2n7vW8EhwVac3+nraVzJH0AB6jL9R6fHs5tgrFCvVulVe9Qzac832au03TBOAqNn+qgsrQ6kuNN6NerXouMpGNxUqVbidTl+C1St4U+F5KKJUAgJgAAAAAAAAAAAAAAAAAAAAAAAAAAAAAAAAAAAAAAAAAAAAAAAAAAAAAAAAD//Z;" vertex="1" parent="1">
          <mxGeometry x="187.45999999999998" y="460" width="33.08" height="30" as="geometry" />
        </mxCell>
        <mxCell id="TVotVtl5lSkwfosgHtOw-39" value="" style="shape=image;verticalLabelPosition=bottom;labelBackgroundColor=default;verticalAlign=top;aspect=fixed;imageAspect=0;image=data:image/png,iVBORw0KGgoAAAANSUhEUgAAAOEAAADhCAMAAAAJbSJIAAAAilBMVEVvLW7///9qIWm1m7Smh6VtKWxsJ2tnGmZhAGDEscSJWYhkD2NmFmVqImnl3OVoHWd1NnR9R3ze092rjap7Q3qbd5vz7/Pt5+2DT4KPZI749fhwMG/RwtHZzdm6ornAq8DKucqMX4uUbpOvk66hf6Goiqfq4uqZdJl4PXdSAFHVx9RbAFqPY47Qv8+x2INGAAANE0lEQVR4nO2deYOqLhfHy0IpMNstp8WyaXq6t/f/9h7hHETN1um6/fz+MeNSyifgwEE4ttp1V6voBPxzNYTVV0NYfTWE1VdDWH01hNVXQ1h9NYTVV0NYff2XCeerzaRbQk02Z+8ThNsp5Y5RSjmcLnq/JdxYFmmVWITbTzNmEc6nvNR8QoQt5m8TjrlZdPqfke0c3yQc09JnIIiwpxCvCOflL6FKxH7GqF4RLipRREH28g3CLSs62a+IrV4ntCtTRoXI6WVCnxed6NfEzq8S9itUC4Xs2YuEXqVqoZD1IuG4coSP28QkYc8qOsWvij+siEnCjVN0il+V9bAHniTsNISlU0PYEJZfDWFDWH41hDkRmoYVysj0W0wnPOW87ZZ+gpAwCkr0yrk6+DBphPPdZNvrbb/7PD0KSyy+C3q9Xmdvszi/vPRTruoHCMnUm4Pc2C35GI96wweI/HSJLu9tbTt+zra30bnzSPf6LXFx7/wM4icIR9HZkf6ZnejgA0K6Sd6vH7uD9TdxKogKCZf7T7lynyWcGOqgqdN2n5BeDRXpsTwjPVK2UUiFEa6iYuPonLlLaKnPzV01tOlSdeEhHvFcNT7/YxdMOFeJC6vhU4QKwh9SRkfrJAaD/Xk/PHeCbY8XTNg+KRqqj90jxNtv5XMC8w9gXADD7AMgF8AmPcfvXwihK/4c8Oc3F9Ghu4QMih+m1MQrwS4HE7uHSxIDeGlxhL78gwbdCcReTxMSodh3YJeY8hNnlVIq6yIWRebFkEIoeQO0Q4UQHmI/Pw7/HCLCr6/w4JdGxF0CBTEa3mKQ63IXC+lWnTP3sQQUQvgjU2cChSx9g4jQhi2VwzjAR1smNAc9HqVmLSTbHKcjz+1V20Fsub/mhRHOZCmayVoDJnLbVYQtJreOmCLYC3skmE86pRYXkpt8FX0bROVPOGeFER5kPkGBgzzbf2tCaDzgy8gVGC3y1U5haEUZrcTX+hrFEMrUQjaBVXAmUfKxyC1lkQMz1J4SZU3Cb117FWBmXQ2BpkZ8rRjC7h+ZJEMkQBYo948mxGyD8WQof9JIYovQdvs0zXgFgd0kWTGLIaQXlU1EfsenmhDbAUgSWEz5mA7aTaH1kiY9J3iistbuA5YD2eMphpDJaieyyf4RWwceI4R8k0+usO2GzgHX3tF8O2WGvio82ow5SAZcrmsURuic1F0tmexWrB62bLCrwr3Chg3blYRvcZxYTvKqlxghXCIojtAAsxHelQ3awkYYMUJC5LZwr6A+HaN+TJC4QYBTWcgiTYiNqkxBMYQ2dGT6JrR3Po8TovEX7hVYff2Yzhpe4ncYQOaaZSQ0AviEuRP/D3aCEEquMKBgdPbadhLe6rj6FnNpjvGqq6tSOimulNrws685GL0TSRBiB21I0IQYccNJHDrdRJAraY/Ac8ywNMXZUhtyx2PScw1zK0GIXbWZDYVtkE5cCLlQXrMc7rnVWuyLJIQaNpKgYfFKEWL1gztmPUs21aDUVle1wVWL/7e4Ft/GX3kylX+NFCHU0iOThlZNWjGlokvRtcaCXpseF1FJbRXXa7Oxb3aRFiHsPiYJsf5RGN+AtJm7faifCBE7d57Awp53rF8K+NIGF0UIN56LHrLovSQJMVN28tNrSBvkZ8x/oJoQu6w48uNYOJXSLc57EoTgJAkSYQNThJb0DToyhwO4DDpVeiwbuqySEA0LOJwscDlQrYrzgAWhHiUVCClC6K2e5Q1xcBy9XD2TjGqXyYyNcLDwSkfYh0HnwgihrRcSA0YpQrD/c1HWPCyX+IsEUWcUngVAEwGdQPFRI9axk+5hcYTY6LWhaqUJWTRKrHoq2A2IRrl5J3YTKNXtmdOyBtH93eRoIokpJ0KEkLmQJsSa1UYPSOdTeyP9X8KhIGI+4eipRwyif5sgMSJsDGP6yoVQVUT5sTShdnd1wcXPn/uU0hburNWAFQxze3tK/4eIHs4x5xkJ3WY/vP0woZpXLW1HmlDlWGLwJZpqPo+21BdIdOto4YR3sgsmbIH/3pb17IoQTWd8gqM5aqe1jBx9++/VSW8YG/MuhBCaZTByV4To4UUPl+SxaXJlizuK3cHpX60m8Fq6X5ob4dQ9Ho/uDEYKO2JbjjSEQOLEUROio5/0nEw20c7h+JAcVzStTcS4gk7OXDwccOSVkwqMVpY+M1NBCFPmiG28ly1PxHDA+U17TgYdzoLNpvO948xupRQ6Vd3OphMsDQZDOisoK9fKBsx3tkli1DQuYjuhsiebtExDnROIW5r5odvKlRCHDkdvT/en586rgPkRhvnAwH9yn+lr3Uru67fPi9DZdgLoheleaD7Ki1A/1897xUZuhJHRn92wef9KuedhJ+8lKXkRwniF6y9yXxiWmy2V8xdZAQuISzK/9B+qIWwIy6+GsCEsvxrChrD8aggbwvKrIWwIy6+GsCEsvypOSIhtO47FeeIZDeeW5Rg2TOOsKiExDYszTqbLQ7DpXc7jwfHoSh0Hg/XK73W6s/7QCWlp9QiJbTE6XAa9tfswGtt8sOqsK0VIbM6Gs+34peid1SEkBnNm/pPhHitIaHJzMr6RxjoQmrSfEe/Jc9f+Juju+6PpEJ8V2+TrNFrsZt+d3mrgXn+lpISELlMRu9xVZ7ZglHHZLJixaV9y07SNsA1hjH4tJ71HtbYEhM5X3B7OV0HfYdyxn3kGIloVxoY/20H7poon5D/6/uPJlPIbUxpuSzQwfN+7YaQKJ+TfEV7XYMatOYgPZVqs38sqsEUTRiFIe1P227ibIeTh2voUTYhz+1atz4S+NeghnY8FE+JcuMPnYhc75rFUhDBTOPjk03+Te2UihAVxn41dTMelIpTT9QYZS6HfFksFbS0FYdv9WBR4Ox3ypySEYWPR+kA+EofOrtr9shCGDUafWb+BJDYzgozOeHkIxXLvfthne6u4mg4jh2x3v0yEobxV9yS63S9gis63sdzE+t4ltKWzhGvgrTezk/Cc1HhapoQP5ViMOv2Jn2jj57M/5SPs092Vf388byc/iy8jGj8EWSI+SugZcnLaHTr+OG1YjjNqJCNgl4PQNNl0m+39eO5gfb70ttuN1Lbnr9bj4zzT7fV6C2rHg8mViFAEGKT97XPjEtma+0sKxrikhC3h/dDhwX/uzSNJeefJVLc15SVswYgp2wX+4OkhU/e8+WklG5lSE0rJwZfW4hD0zoNbA9+eO770gv3JyWhbyk8oRYgN42nUPC12y/3sEGo2+9n/3S1OBqVMNCfZrUlFCLXCls80bSWxwv9Bf6ByhC+rIcxV/4TQaAjz1H+aUJtPOxlf+eYJpYoQmstZTLH2wdzHT2QhVoQw+YqchUZkiRRnLcmsCmHCK9ZhqElyAXxtCP1ojT/GBKsdYRThLj1FqDaEmuTW8ZjKRagC+V0pRRJ9JBVvofyEz+ahCqmgI6jUjVBFWDS+E4czCe2KEcIQXBRo248drAkhhs5U0fihIxDNL6oDIQSJUZ/BVeNR8Kw6EKJpgVgNGF2k3b9DSMpF+Li1GEKdA1OjIp9FAQDqQHjCx8QQbxBqpfu/OhFOMdtkHkJs+rYfPV6qBSHWuZ2pE/9dK8KRMp+Ojms4ulsPzcoRwpaIVYgx+z1WL0KMziRMDT4UH9eM0MEpQDZRhmbj1IvQxNdk/DXVG5z3Zs0I8ZVDHQfDhbYNUi9CgrVvhcHSRZTTmhGiBZ1TfEW1b9WNUHW3bYhDLCLA1oxQ8SyxszIl9wlJ9QhxuwMBT0VIuLoRwrsl2heoj+MaEtrQ5h/BdRLBNetGqF6NBYZGvK+oboQYzB0lHmHUjjA+DVU6+7UjjAem9x/mYZKpGoQkNpYvI77XLg/jLz6dJvbrkoexpxgQArZ+hFb0Ajd4d0T9CO1ooSkE036bcGtdf+Gf6llC1eaL7rc4+zbhU68z/6SeJdRtPjxle5twnncY4KcJVZt//CWhfi91TrpDqGYMwWQh1eb7UMreJ8zb1NwmJKcpSB2APXyvMsGT04wcuU84z3ri+A91m7CVfoVOcvfOC3buE7a7+WbiHcK39YDQc3KtiQUQts+5llN4n1y+hO3X3zHxC/2TPBw+IGwHOSLCevzx1SuffyPWeUTY7n30hneF/c359Wut3xWhh/ZDwrbb/+QC+btiuCBvvbh+zc4bIpZxScFkEob2Zkct2yS/ELyh00zuXcuJZsYMDvy3bx4wuZFejX+TMCw4vcPiK2pRv1Dxd70NT6gp/EWNQIuE+qgdaKm1i82IvSw5c96kFOv6lun8u0tYkNadPmO3FqXdzDuDM2PmZy/kKxuh0MD/7pOQ07m3lhsyzjScMNsX3TsrT8tIKDUf+5vDcsioWMstl3IbKEcGixRLE9lp2d2eHyyrLS1hJPcoQkFuOsFk8v3d/f6eBJ3N1r+sby4vTan8hL9VQ1h9NYTVV0NYfTWE1VdDWH01hNVXQ1h9NYTVV0NYff0f4AI1zH0whekAAAAASUVORK5CYII=;" vertex="1" parent="1">
          <mxGeometry x="389" y="460" width="30" height="30" as="geometry" />
        </mxCell>
      </root>
    </mxGraphModel>
  </diagram>
</mxfile>
